<mxfile host="app.diagrams.net" agent="Mozilla/5.0 (X11; Linux x86_64; rv:127.0) Gecko/20100101 Firefox/127.0" version="24.7.16">
  <diagram name="Page-1" id="-0iEGKucGFzw3U3AhVlI">
    <mxGraphModel dx="683" dy="377" grid="1" gridSize="10" guides="1" tooltips="1" connect="1" arrows="1" fold="1" page="1" pageScale="1" pageWidth="850" pageHeight="1100" math="0" shadow="0">
      <root>
        <mxCell id="0" />
        <mxCell id="1" parent="0" />
        <mxCell id="db1sq9ViBWULsFLDNi82-1" value="Process 1" style="rounded=0;whiteSpace=wrap;html=1;verticalAlign=top;fontFamily=Times New Roman;" vertex="1" parent="1">
          <mxGeometry x="120" y="80" width="100" height="100" as="geometry" />
        </mxCell>
        <mxCell id="db1sq9ViBWULsFLDNi82-2" value="Process 2" style="rounded=0;whiteSpace=wrap;html=1;verticalAlign=top;fontFamily=Times New Roman;" vertex="1" parent="1">
          <mxGeometry x="320" y="80" width="100" height="100" as="geometry" />
        </mxCell>
        <mxCell id="db1sq9ViBWULsFLDNi82-3" value="QUIC Connection" style="rounded=0;whiteSpace=wrap;html=1;fontFamily=Times New Roman;verticalAlign=top;fillColor=#D9D9D9;" vertex="1" parent="1">
          <mxGeometry x="220" y="90" width="100" height="60" as="geometry" />
        </mxCell>
        <mxCell id="db1sq9ViBWULsFLDNi82-4" value="Sender" style="rounded=0;whiteSpace=wrap;html=1;fontFamily=Times New Roman;fillColor=#dae8fc;strokeColor=#6c8ebf;" vertex="1" parent="1">
          <mxGeometry x="145" y="110" width="50" height="20" as="geometry" />
        </mxCell>
        <mxCell id="db1sq9ViBWULsFLDNi82-5" value="Receiver" style="rounded=0;whiteSpace=wrap;html=1;fontFamily=Times New Roman;fillColor=#dae8fc;strokeColor=#6c8ebf;" vertex="1" parent="1">
          <mxGeometry x="340" y="110" width="50" height="20" as="geometry" />
        </mxCell>
        <mxCell id="db1sq9ViBWULsFLDNi82-6" value="" style="shape=flexArrow;endArrow=classic;html=1;rounded=0;exitX=1;exitY=0.5;exitDx=0;exitDy=0;entryX=0;entryY=0.5;entryDx=0;entryDy=0;width=5.116279069767442;endSize=3.0930232558139537;endWidth=7.6473769605192;fillColor=#dae8fc;strokeColor=#6c8ebf;" edge="1" parent="1" source="db1sq9ViBWULsFLDNi82-4" target="db1sq9ViBWULsFLDNi82-5">
          <mxGeometry width="50" height="50" relative="1" as="geometry">
            <mxPoint x="480" y="400" as="sourcePoint" />
            <mxPoint x="530" y="350" as="targetPoint" />
          </mxGeometry>
        </mxCell>
        <mxCell id="db1sq9ViBWULsFLDNi82-7" value="1.Two processes already have an Aqua channel crossing their network boundary" style="text;html=1;align=left;verticalAlign=top;whiteSpace=wrap;rounded=0;fontFamily=Times New Roman;" vertex="1" parent="1">
          <mxGeometry y="80" width="110" height="90" as="geometry" />
        </mxCell>
        <mxCell id="db1sq9ViBWULsFLDNi82-8" value="Process 1" style="rounded=0;whiteSpace=wrap;html=1;verticalAlign=top;fontFamily=Times New Roman;" vertex="1" parent="1">
          <mxGeometry x="120" y="190" width="100" height="130" as="geometry" />
        </mxCell>
        <mxCell id="db1sq9ViBWULsFLDNi82-9" value="Process 2" style="rounded=0;whiteSpace=wrap;html=1;verticalAlign=top;fontFamily=Times New Roman;" vertex="1" parent="1">
          <mxGeometry x="320" y="190" width="100" height="100" as="geometry" />
        </mxCell>
        <mxCell id="db1sq9ViBWULsFLDNi82-10" value="QUIC Connection" style="rounded=0;whiteSpace=wrap;html=1;fontFamily=Times New Roman;verticalAlign=top;fillColor=#D9D9D9;" vertex="1" parent="1">
          <mxGeometry x="220" y="200" width="100" height="60" as="geometry" />
        </mxCell>
        <mxCell id="db1sq9ViBWULsFLDNi82-11" value="Sender" style="rounded=0;whiteSpace=wrap;html=1;fontFamily=Times New Roman;fillColor=#dae8fc;strokeColor=#6c8ebf;" vertex="1" parent="1">
          <mxGeometry x="145" y="220" width="50" height="20" as="geometry" />
        </mxCell>
        <mxCell id="db1sq9ViBWULsFLDNi82-12" value="Receiver" style="rounded=0;whiteSpace=wrap;html=1;fontFamily=Times New Roman;fillColor=#dae8fc;strokeColor=#6c8ebf;" vertex="1" parent="1">
          <mxGeometry x="340" y="220" width="50" height="20" as="geometry" />
        </mxCell>
        <mxCell id="db1sq9ViBWULsFLDNi82-13" value="" style="shape=flexArrow;endArrow=classic;html=1;rounded=0;exitX=1;exitY=0.5;exitDx=0;exitDy=0;entryX=0;entryY=0.5;entryDx=0;entryDy=0;width=5.116279069767442;endSize=3.0930232558139537;endWidth=7.6473769605192;fillColor=#dae8fc;strokeColor=#6c8ebf;" edge="1" parent="1" source="db1sq9ViBWULsFLDNi82-11" target="db1sq9ViBWULsFLDNi82-12">
          <mxGeometry width="50" height="50" relative="1" as="geometry">
            <mxPoint x="480" y="510" as="sourcePoint" />
            <mxPoint x="530" y="460" as="targetPoint" />
          </mxGeometry>
        </mxCell>
        <mxCell id="db1sq9ViBWULsFLDNi82-14" value="2. One process creates a second Aqua channel, and sends half of it through the first aqua channel" style="text;html=1;align=left;verticalAlign=top;whiteSpace=wrap;rounded=0;fontFamily=Times New Roman;" vertex="1" parent="1">
          <mxGeometry y="190" width="110" height="90" as="geometry" />
        </mxCell>
        <mxCell id="db1sq9ViBWULsFLDNi82-15" value="Sender" style="rounded=0;whiteSpace=wrap;html=1;fontFamily=Times New Roman;fillColor=#d5e8d4;strokeColor=#82b366;" vertex="1" parent="1">
          <mxGeometry x="130" y="250" width="50" height="20" as="geometry" />
        </mxCell>
        <mxCell id="db1sq9ViBWULsFLDNi82-16" value="Receiver" style="rounded=0;whiteSpace=wrap;html=1;fontFamily=Times New Roman;fillColor=#d5e8d4;strokeColor=#82b366;" vertex="1" parent="1">
          <mxGeometry x="130" y="290" width="50" height="20" as="geometry" />
        </mxCell>
        <mxCell id="db1sq9ViBWULsFLDNi82-17" value="" style="shape=flexArrow;endArrow=classic;html=1;rounded=0;exitX=0.5;exitY=1;exitDx=0;exitDy=0;width=5.116279069767442;endSize=3.0930232558139537;endWidth=7.6473769605192;fillColor=#d5e8d4;strokeColor=#82b366;" edge="1" parent="1" source="db1sq9ViBWULsFLDNi82-15" target="db1sq9ViBWULsFLDNi82-16">
          <mxGeometry width="50" height="50" relative="1" as="geometry">
            <mxPoint x="205" y="330" as="sourcePoint" />
            <mxPoint x="350" y="330" as="targetPoint" />
          </mxGeometry>
        </mxCell>
        <mxCell id="db1sq9ViBWULsFLDNi82-18" value="Process 1" style="rounded=0;whiteSpace=wrap;html=1;verticalAlign=top;fontFamily=Times New Roman;" vertex="1" parent="1">
          <mxGeometry x="120" y="330" width="100" height="100" as="geometry" />
        </mxCell>
        <mxCell id="db1sq9ViBWULsFLDNi82-19" value="Process 2" style="rounded=0;whiteSpace=wrap;html=1;verticalAlign=top;fontFamily=Times New Roman;" vertex="1" parent="1">
          <mxGeometry x="320" y="330" width="100" height="100" as="geometry" />
        </mxCell>
        <mxCell id="db1sq9ViBWULsFLDNi82-20" value="QUIC Connection" style="rounded=0;whiteSpace=wrap;html=1;fontFamily=Times New Roman;verticalAlign=top;fillColor=#D9D9D9;" vertex="1" parent="1">
          <mxGeometry x="220" y="340" width="100" height="60" as="geometry" />
        </mxCell>
        <mxCell id="db1sq9ViBWULsFLDNi82-21" value="Sender" style="rounded=0;whiteSpace=wrap;html=1;fontFamily=Times New Roman;fillColor=#dae8fc;strokeColor=#6c8ebf;" vertex="1" parent="1">
          <mxGeometry x="145" y="360" width="50" height="20" as="geometry" />
        </mxCell>
        <mxCell id="db1sq9ViBWULsFLDNi82-22" value="Receiver" style="rounded=0;whiteSpace=wrap;html=1;fontFamily=Times New Roman;fillColor=#dae8fc;strokeColor=#6c8ebf;" vertex="1" parent="1">
          <mxGeometry x="340" y="360" width="50" height="20" as="geometry" />
        </mxCell>
        <mxCell id="db1sq9ViBWULsFLDNi82-23" value="" style="shape=flexArrow;endArrow=classic;html=1;rounded=0;exitX=1;exitY=0.5;exitDx=0;exitDy=0;entryX=0;entryY=0.5;entryDx=0;entryDy=0;width=5.116279069767442;endSize=3.0930232558139537;endWidth=7.6473769605192;fillColor=#dae8fc;strokeColor=#6c8ebf;" edge="1" parent="1" source="db1sq9ViBWULsFLDNi82-21" target="db1sq9ViBWULsFLDNi82-22">
          <mxGeometry width="50" height="50" relative="1" as="geometry">
            <mxPoint x="480" y="650" as="sourcePoint" />
            <mxPoint x="530" y="600" as="targetPoint" />
          </mxGeometry>
        </mxCell>
        <mxCell id="db1sq9ViBWULsFLDNi82-24" value="2. The second channel automagically gets hooked up as crossing that network boundary" style="text;html=1;align=left;verticalAlign=top;whiteSpace=wrap;rounded=0;fontFamily=Times New Roman;" vertex="1" parent="1">
          <mxGeometry y="335" width="110" height="90" as="geometry" />
        </mxCell>
        <mxCell id="db1sq9ViBWULsFLDNi82-25" value="Sender" style="rounded=0;whiteSpace=wrap;html=1;fontFamily=Times New Roman;fillColor=#d5e8d4;strokeColor=#82b366;" vertex="1" parent="1">
          <mxGeometry x="340" y="385" width="50" height="20" as="geometry" />
        </mxCell>
        <mxCell id="db1sq9ViBWULsFLDNi82-26" value="Receiver" style="rounded=0;whiteSpace=wrap;html=1;fontFamily=Times New Roman;fillColor=#d5e8d4;strokeColor=#82b366;" vertex="1" parent="1">
          <mxGeometry x="145" y="385" width="50" height="20" as="geometry" />
        </mxCell>
        <mxCell id="db1sq9ViBWULsFLDNi82-27" value="" style="shape=flexArrow;endArrow=classic;html=1;rounded=0;exitX=0;exitY=0.25;exitDx=0;exitDy=0;width=5.116279069767442;endSize=3.0930232558139537;endWidth=7.6473769605192;fillColor=#d5e8d4;strokeColor=#82b366;entryX=1;entryY=0.25;entryDx=0;entryDy=0;" edge="1" parent="1" source="db1sq9ViBWULsFLDNi82-25" target="db1sq9ViBWULsFLDNi82-26">
          <mxGeometry width="50" height="50" relative="1" as="geometry">
            <mxPoint x="205" y="470" as="sourcePoint" />
            <mxPoint x="200" y="390" as="targetPoint" />
            <Array as="points" />
          </mxGeometry>
        </mxCell>
        <mxCell id="db1sq9ViBWULsFLDNi82-28" value="" style="endArrow=block;html=1;rounded=0;strokeWidth=2;strokeColor=#CC0000;endFill=1;exitX=1;exitY=0.5;exitDx=0;exitDy=0;" edge="1" parent="1" source="db1sq9ViBWULsFLDNi82-15">
          <mxGeometry width="50" height="50" relative="1" as="geometry">
            <mxPoint x="120" y="280" as="sourcePoint" />
            <mxPoint x="342" y="258" as="targetPoint" />
            <Array as="points">
              <mxPoint x="192" y="260" />
              <mxPoint x="191" y="230" />
              <mxPoint x="345" y="230" />
            </Array>
          </mxGeometry>
        </mxCell>
        <mxCell id="db1sq9ViBWULsFLDNi82-29" value="" style="rounded=0;whiteSpace=wrap;html=1;fontFamily=Times New Roman;fillColor=none;strokeColor=#CC0000;dashed=1;" vertex="1" parent="1">
          <mxGeometry x="338" y="257" width="50" height="20" as="geometry" />
        </mxCell>
      </root>
    </mxGraphModel>
  </diagram>
</mxfile>
